name analog
datacolumns 19
datarows 23
range 0.496 0.507
endheader
time	ground_force_vx	ground_force_vy	ground_force_vz	ground_force_px	ground_force_py	ground_force_pz	l_ground_force_vx	l_ground_force_vy	l_ground_force_vz	l_ground_force_px	l_ground_force_py	l_ground_force_pz	ground_torque_x	ground_torque_y	ground_torque_z	l_ground_torque_x	l_ground_torque_y	l_ground_torque_z
0.496	-0.0	-0.0	-0.0	-0.0	-0.0	-0.0	5.818969249725342	4.172133922576904	-519.271484375	-0.0	-0.0	-0.0	-0.0	-0.0	-0.0	155455.734375	27780.763671875	361.1666564941406
0.4965	-0.0	-0.0	-0.0	-0.0	-0.0	-0.0	3.154568910598755	4.027603149414063	-516.6183471679688	-0.0	-0.0	-0.0	-0.0	-0.0	-0.0	154999.84375	28447.015625	-226.90835571289065
0.497	-0.0	-0.0	-0.0	-0.0	-0.0	-0.0	0.9585291147232056	4.052018642425537	-514.8027954101562	-0.0	-0.0	-0.0	-0.0	-0.0	-0.0	154213.234375	28862.671875	-851.3057861328125
0.4975	-0.0	-0.0	-0.0	-0.0	-0.0	-0.0	-1.1313107013702393	4.5431084632873535	-511.157958984375	-0.0	-0.0	-0.0	-0.0	-0.0	-0.0	153441.234375	29120.7109375	-1186.212158203125
0.498	-0.0	-0.0	-0.0	-0.0	-0.0	-0.0	-2.722334146499634	4.642416000366211	-508.6048889160156	-0.0	-0.0	-0.0	-0.0	-0.0	-0.0	152406.59375	29504.69921875	-1591.4764404296875
0.4985	-0.0	-0.0	-0.0	-0.0	-0.0	-0.0	-4.058220863342285	4.6536712646484375	-506.2698364257813	-0.0	-0.0	-0.0	-0.0	-0.0	-0.0	151847.328125	29873.55078125	-1798.2574462890625
0.499	-0.0	-0.0	-0.0	-0.0	-0.0	-0.0	-5.388646125793457	4.3164567947387695	-506.511474609375	-0.0	-0.0	-0.0	-0.0	-0.0	-0.0	151065.546875	30385.998046875	-2071.624267578125
0.4995	-0.0	-0.0	-0.0	-0.0	-0.0	-0.0	-6.7305097579956055	3.958963632583618	-503.6285705566406	-0.0	-0.0	-0.0	-0.0	-0.0	-0.0	150500.640625	30526.19140625	-2321.425048828125
0.5	-0.0	-0.0	-0.0	-0.0	-0.0	-0.0	-7.085215091705322	3.544463872909546	-500.5458984375	-0.0	-0.0	-0.0	-0.0	-0.0	-0.0	149281.40625	30938.5859375	-2415.915771484375
0.5005000000000001	-0.0	-0.0	-0.0	-0.0	-0.0	-0.0	-7.41006326675415	3.4445457458496094	-496.5862121582031	-0.0	-0.0	-0.0	-0.0	-0.0	-0.0	148351.34375	30921.927734375	-2289.58642578125
0.501	-0.0	-0.0	-0.0	-0.0	-0.0	-0.0	-6.955204486846924	3.52099871635437	-494.2006530761719	-0.0	-0.0	-0.0	-0.0	-0.0	-0.0	147375.046875	30514.04296875	-2228.855224609375
0.5015000000000001	-0.0	-0.0	-0.0	-0.0	-0.0	-0.0	-5.663232803344727	3.659356832504273	-489.217529296875	-0.0	-0.0	-0.0	-0.0	-0.0	-0.0	146129.078125	30250.97265625	-1897.5709228515625
0.502	-0.0	-0.0	-0.0	-0.0	-0.0	-0.0	-3.852825880050659	3.922553300857544	-486.26556396484375	-0.0	-0.0	-0.0	-0.0	-0.0	-0.0	145338.203125	29562.318359375	-1441.9178466796875
0.5025000000000001	-0.0	-0.0	-0.0	-0.0	-0.0	-0.0	-1.532746434211731	4.327762603759766	-482.2754821777344	-0.0	-0.0	-0.0	-0.0	-0.0	-0.0	144408.0	28998.642578125	-885.388916015625
0.503	-0.0	-0.0	-0.0	-0.0	-0.0	-0.0	-0.6326438188552856	4.151119232177734	-478.8369445800781	-0.0	-0.0	-0.0	-0.0	-0.0	-0.0	143386.75	28225.158203125	-562.7510375976562
0.5035000000000001	-0.0	-0.0	-0.0	-0.0	-0.0	-0.0	0.7605856657028198	3.873605728149414	-474.3959655761719	-0.0	-0.0	-0.0	-0.0	-0.0	-0.0	142097.78125	27511.765625	-91.681884765625
0.504	-0.0	-0.0	-0.0	-0.0	-0.0	-0.0	1.178723931312561	3.394042015075684	-470.3072509765625	-0.0	-0.0	-0.0	-0.0	-0.0	-0.0	140669.046875	27002.03515625	82.17100524902344
0.5045000000000001	-0.0	-0.0	-0.0	-0.0	-0.0	-0.0	0.4692739248275757	3.3683760166168213	-465.8189086914063	-0.0	-0.0	-0.0	-0.0	-0.0	-0.0	139648.84375	26571.32421875	47.83550262451172
0.505	-0.0	-0.0	-0.0	-0.0	-0.0	-0.0	0.1265591382980346	3.2926278114318848	-462.9285278320313	-0.0	-0.0	-0.0	-0.0	-0.0	-0.0	138726.859375	26360.2578125	-37.44126510620117
0.5055000000000001	-0.0	-0.0	-0.0	-0.0	-0.0	-0.0	-0.1790978908538818	3.572150230407715	-458.9339294433594	-0.0	-0.0	-0.0	-0.0	-0.0	-0.0	137944.5625	26026.705078125	-71.18120574951172
0.506	-0.0	-0.0	-0.0	-0.0	-0.0	-0.0	-0.3415522277355194	4.100342273712158	-457.58935546875	-0.0	-0.0	-0.0	-0.0	-0.0	-0.0	137526.625	26066.8828125	-147.52162170410156
0.5065000000000001	-0.0	-0.0	-0.0	-0.0	-0.0	-0.0	-0.6451940536499023	5.20836067199707	-457.09228515625	-0.0	-0.0	-0.0	-0.0	-0.0	-0.0	137388.8125	26065.8046875	26.0390567779541
0.507	-0.0	-0.0	-0.0	-0.0	-0.0	-0.0	-1.293077826499939	5.968455791473389	-456.6370239257813	-0.0	-0.0	-0.0	-0.0	-0.0	-0.0	137300.328125	26139.16796875	-79.33849334716797
